HIERARCHY
ROOT Hip
{
	OFFSET 0.686472 -0.374686 0.153388
	CHANNELS 6 Xposition Yposition Zposition Xrotation Yrotation Zrotation
	JOINT LowerSpine
	{
		OFFSET -0.002356 0.151130 0.261950
		CHANNELS 6 Xposition Yposition Zposition Xrotation Yrotation Zrotation
		JOINT MiddleSpine
		{
			OFFSET -0.023744 -0.012831 0.235877
			CHANNELS 3 Xrotation Yrotation Zrotation
			JOINT Chest
			{
				OFFSET -0.019090 0.055960 0.293380
				CHANNELS 3 Xrotation Yrotation Zrotation
				JOINT Neck
				{
					OFFSET -0.060043 0.007248 0.658624
					CHANNELS 6 Xposition Yposition Zposition Xrotation Yrotation Zrotation
					JOINT Head
					{
						OFFSET -0.049300 -0.103348 0.369673
						CHANNELS 3 Xrotation Yrotation Zrotation
						End Site
						{
							OFFSET -0.005239 -0.001990 0.053359
						}
					}
				}
				JOINT LClavicle
				{
					OFFSET -0.028321 -0.208168 0.636752
					CHANNELS 6 Xposition Yposition Zposition Xrotation Yrotation Zrotation
					JOINT LShoulder
					{
						OFFSET 0.358374 0.095667 0.126305
						CHANNELS 3 Xrotation Yrotation Zrotation
						JOINT LForearm
						{
							OFFSET 0.817763 -0.111419 0.072963
							CHANNELS 3 Xrotation Yrotation Zrotation
							JOINT LHand
							{
								OFFSET 0.681508 -0.094809 0.065264
								CHANNELS 3 Xrotation Yrotation Zrotation
								JOINT LFinger1
								{
									OFFSET 0.251241 -0.112136 0.046262
									CHANNELS 6 Xposition Yposition Zposition Xrotation Yrotation Zrotation
									JOINT LFinger11
									{
										OFFSET 0.098521 -0.031624 -0.015533
										CHANNELS 3 Xrotation Yrotation Zrotation
										JOINT LFinger12
										{
											OFFSET 0.067258 -0.021593 -0.010607
											CHANNELS 3 Xrotation Yrotation Zrotation
											End Site
											{
												OFFSET 0.050313 -0.015310 -0.010624
											}
										}
									}
								}
								JOINT LFinger2
								{
									OFFSET 0.264472 -0.045514 0.051653
									CHANNELS 6 Xposition Yposition Zposition Xrotation Yrotation Zrotation
									JOINT LFinger21
									{
										OFFSET 0.122159 -0.017006 0.011683
										CHANNELS 3 Xrotation Yrotation Zrotation
										JOINT LFinger22
										{
											OFFSET 0.067713 -0.009415 0.006496
											CHANNELS 3 Xrotation Yrotation Zrotation
											End Site
											{
												OFFSET 0.053085 -0.007701 0.001127
											}
										}
									}
								}
								JOINT LFinger3
								{
									OFFSET 0.260863 0.023324 0.042797
									CHANNELS 6 Xposition Yposition Zposition Xrotation Yrotation Zrotation
									JOINT LFinger31
									{
										OFFSET 0.112312 -0.009075 0.004756
										CHANNELS 3 Xrotation Yrotation Zrotation
										JOINT LFinger32
										{
											OFFSET 0.064000 -0.005159 0.002731
											CHANNELS 3 Xrotation Yrotation Zrotation
											End Site
											{
												OFFSET 0.053388 -0.005074 -0.001596
											}
										}
									}
								}
								JOINT LFinger4
								{
									OFFSET 0.252238 0.070110 0.005960
									CHANNELS 6 Xposition Yposition Zposition Xrotation Yrotation Zrotation
									JOINT LFinger41
									{
										OFFSET 0.072196 0.009106 -0.007638
										CHANNELS 3 Xrotation Yrotation Zrotation
										JOINT LFinger42
										{
											OFFSET 0.052941 0.006686 -0.005585
											CHANNELS 3 Xrotation Yrotation Zrotation
											End Site
											{
												OFFSET 0.052721 0.004348 -0.008958
											}
										}
									}
								}
								JOINT LFinger0
								{
									OFFSET 0.052571 -0.049186 -0.037566
									CHANNELS 6 Xposition Yposition Zposition Xrotation Yrotation Zrotation
									JOINT LFinger01
									{
										OFFSET 0.093810 -0.091487 -0.025919
										CHANNELS 3 Xrotation Yrotation Zrotation
										JOINT LFinger02
										{
											OFFSET 0.062281 -0.057976 -0.019012
											CHANNELS 3 Xrotation Yrotation Zrotation
											End Site
											{
												OFFSET 0.039202 -0.034841 -0.011309
											}
										}
									}
								}
							}
						}
					}
				}
				JOINT RClavicle
				{
					OFFSET -0.146746 -0.190974 0.625766
					CHANNELS 6 Xposition Yposition Zposition Xrotation Yrotation Zrotation
					JOINT RShoulder
					{
						OFFSET -0.333546 0.196154 0.062138
						CHANNELS 3 Xrotation Yrotation Zrotation
						JOINT RForearm
						{
							OFFSET -0.815178 0.125674 -0.078512
							CHANNELS 3 Xrotation Yrotation Zrotation
							JOINT RHand
							{
								OFFSET -0.680708 0.102976 -0.061100
								CHANNELS 3 Xrotation Yrotation Zrotation
								JOINT RFinger1
								{
									OFFSET -0.276718 -0.035480 -0.002710
									CHANNELS 6 Xposition Yposition Zposition Xrotation Yrotation Zrotation
									JOINT RFinger11
									{
										OFFSET -0.098960 -0.002950 -0.033852
										CHANNELS 3 Xrotation Yrotation Zrotation
										JOINT RFinger12
										{
											OFFSET -0.067558 -0.002019 -0.023119
											CHANNELS 3 Xrotation Yrotation Zrotation
											End Site
											{
												OFFSET -0.049815 -0.000772 -0.019913
											}
										}
									}
								}
								JOINT RFinger2
								{
									OFFSET -0.271365 0.032283 0.001947
									CHANNELS 6 Xposition Yposition Zposition Xrotation Yrotation Zrotation
									JOINT RFinger21
									{
										OFFSET -0.122016 0.018447 -0.010964
										CHANNELS 3 Xrotation Yrotation Zrotation
										JOINT RFinger22
										{
											OFFSET -0.067633 0.010240 -0.006060
											CHANNELS 3 Xrotation Yrotation Zrotation
											End Site
											{
												OFFSET -0.052399 0.007614 -0.008658
											}
										}
									}
								}
								JOINT RFinger3
								{
									OFFSET -0.246955 0.097057 -0.004307
									CHANNELS 6 Xposition Yposition Zposition Xrotation Yrotation Zrotation
									JOINT RFinger31
									{
										OFFSET -0.109252 0.023095 -0.015797
										CHANNELS 3 Xrotation Yrotation Zrotation
										JOINT RFinger32
										{
											OFFSET -0.062259 0.013173 -0.008981
											CHANNELS 3 Xrotation Yrotation Zrotation
											End Site
											{
												OFFSET -0.051453 0.010149 -0.011321
											}
										}
									}
								}
								JOINT RFinger4
								{
									OFFSET -0.218996 0.138530 -0.037754
									CHANNELS 6 Xposition Yposition Zposition Xrotation Yrotation Zrotation
									JOINT RFinger41
									{
										OFFSET -0.064088 0.028893 -0.020280
										CHANNELS 3 Xrotation Yrotation Zrotation
										JOINT RFinger42
										{
											OFFSET -0.046997 0.021196 -0.014853
											CHANNELS 3 Xrotation Yrotation Zrotation
											End Site
											{
												OFFSET -0.046840 0.018804 -0.018194
											}
										}
									}
								}
								JOINT RFinger0
								{
									OFFSET -0.056643 -0.033326 -0.047694
									CHANNELS 6 Xposition Yposition Zposition Xrotation Yrotation Zrotation
									JOINT RFinger01
									{
										OFFSET -0.109531 -0.061966 -0.044788
										CHANNELS 3 Xrotation Yrotation Zrotation
										JOINT RFinger02
										{
											OFFSET -0.071614 -0.038535 -0.031429
											CHANNELS 3 Xrotation Yrotation Zrotation
											End Site
											{
												OFFSET -0.044730 -0.022654 -0.019095
											}
										}
									}
								}
							}
						}
					}
				}
			}
		}
	}
	JOINT RThigh
	{
		OFFSET -0.310204 0.068022 0.089387
		CHANNELS 6 Xposition Yposition Zposition Xrotation Yrotation Zrotation
		JOINT RShin
		{
			OFFSET 0.091076 0.012327 -1.205876
			CHANNELS 3 Xrotation Yrotation Zrotation
			JOINT RFoot
			{
				OFFSET 0.110958 0.008979 -1.182102
				CHANNELS 3 Xrotation Yrotation Zrotation
				JOINT RToe
				{
					OFFSET -0.026491 -0.269085 -0.135605
					CHANNELS 3 Xrotation Yrotation Zrotation
					End Site
					{
						OFFSET -0.007606 -0.053099 -0.001117
					}
				}
			}
		}
	}
	JOINT LThigh
	{
		OFFSET 0.295391 -0.019907 0.145572
		CHANNELS 6 Xposition Yposition Zposition Xrotation Yrotation Zrotation
		JOINT LShin
		{
			OFFSET 0.134923 0.005962 -1.201817
			CHANNELS 3 Xrotation Yrotation Zrotation
			JOINT LFoot
			{
				OFFSET 0.110958 0.008980 -1.182101
				CHANNELS 3 Xrotation Yrotation Zrotation
				JOINT LToe
				{
					OFFSET -0.026491 -0.269088 -0.135607
					CHANNELS 3 Xrotation Yrotation Zrotation
					End Site
					{
						OFFSET -0.007606 -0.053099 -0.001117
					}
				}
			}
		}
	}
}
MOTION
Frames: 6
Frame Time: 0.041667
0.841608 -0.632300 2.239809 18.057267 11.769575 -327.367279 -0.002356 0.151130 0.261950 -0.000010 -0.000037 -0.000015 -3.177994 0.445711 -1.582893 -11.102828 0.947874 -6.883578 -0.060043 0.007247 0.658624 -11.674219 -2.044986 -2.403794 -1.629461 -0.324584 -0.181258 -0.028321 -0.208168 0.636752 -1.949021 3.250406 -0.301833 24.721246 -10.834348 -34.728278 0.008324 0.000220 -0.063026 -0.000939 -0.000427 -0.001060 0.251240 -0.112137 0.046262 0.000842 -0.000496 0.000861 0.000011 0.000002 0.000025 -0.000009 0.000005 -0.000020 0.264471 -0.045515 0.051652 -0.000000 0.000004 0.000000 0.000000 -0.000001 -0.000012 0.000002 -0.000006 -0.000026 0.260862 0.023325 0.042797 -0.000002 -0.000002 -0.000007 -0.000006 -0.000001 0.000006 0.000003 -0.000003 -0.000009 0.252238 0.070110 0.005959 0.000002 -0.000001 -0.000008 0.000002 -0.000009 -0.000000 0.000003 -0.000006 -0.000001 0.052571 -0.049186 -0.037566 0.000002 -0.000003 -0.000015 0.000008 -0.000003 0.000010 -0.000000 0.000015 -0.000003 -0.146747 -0.190974 0.625767 -3.942725 -1.732652 -12.388674 4.021573 -34.741371 -12.759385 -0.003121 -0.001075 0.062950 -58.411532 -9.550543 -1.885428 -0.276717 -0.035480 -0.002711 1.025316 7.187561 0.087107 -0.000000 0.000021 -0.000107 -0.000009 0.000000 -0.000211 -0.271365 0.032283 0.001947 0.000002 -0.000004 0.000018 0.000004 0.000009 -0.000054 0.000001 -0.000015 0.000007 -0.246956 0.097056 -0.004306 0.000013 -0.000001 0.000047 0.000014 -0.000015 0.000091 -0.000018 -0.000019 -0.000083 -0.218996 0.138530 -0.037754 0.000005 0.000012 0.000081 0.000017 0.000017 -0.000005 0.000007 -0.000008 0.000072 -0.056643 -0.033327 -0.047694 -0.000001 -0.000035 0.000028 -0.000015 0.000051 -0.000038 -0.000009 -0.000133 0.000140 -0.315846 0.084111 0.112437 -59.480620 -3.803673 -14.363089 33.235741 -3.674101 4.254821 5.114441 0.121081 -1.361738 0.000018 0.000125 -0.000007 0.240046 -0.129135 0.335812 -31.286136 14.896272 12.940514 34.672417 -3.771712 4.480039 -4.782807 0.041289 0.786601 -15.272643 2.382263 -1.107740 
0.872856 -0.637030 2.243800 19.186001 10.214130 -331.844577 -0.002356 0.151131 0.261950 -0.000014 -0.000034 -0.000016 -3.099183 0.337490 -1.702584 -10.828938 0.777876 -7.019356 -0.060043 0.007248 0.658624 -11.415264 -2.069446 -2.370934 -1.612146 -0.272515 -0.176956 -0.028321 -0.208168 0.636752 -1.963169 3.354478 -0.302947 27.124503 -9.785107 -34.065043 0.096910 0.006205 -0.977794 -0.000984 -0.000447 -0.001107 0.251241 -0.112137 0.046262 0.000891 -0.000514 0.000904 0.000007 -0.000002 0.000023 -0.000012 0.000004 -0.000022 0.264471 -0.045515 0.051653 0.000001 0.000004 -0.000003 -0.000002 -0.000002 -0.000012 0.000002 -0.000009 -0.000026 0.260862 0.023325 0.042797 0.000005 -0.000000 -0.000011 -0.000004 0.000002 0.000005 0.000001 -0.000002 -0.000009 0.252238 0.070110 0.005960 0.000011 0.000003 -0.000011 -0.000001 -0.000010 -0.000000 0.000000 -0.000007 -0.000001 0.052571 -0.049186 -0.037566 0.000005 -0.000002 -0.000020 0.000012 -0.000005 0.000011 0.000002 0.000014 -0.000005 -0.146746 -0.190974 0.625766 -3.985166 -1.738171 -12.515427 4.058757 -36.797087 -13.466074 -0.111110 -0.012274 1.253114 -58.411607 -9.550576 -1.885435 -0.276717 -0.035480 -0.002710 1.025312 7.187560 0.087103 -0.000008 0.000024 -0.000104 -0.000004 0.000002 -0.000209 -0.271366 0.032283 0.001947 -0.000006 -0.000006 0.000015 0.000002 0.000012 -0.000055 -0.000002 -0.000015 0.000007 -0.246957 0.097057 -0.004306 0.000001 -0.000003 0.000044 0.000010 -0.000016 0.000091 -0.000020 -0.000015 -0.000086 -0.218997 0.138531 -0.037754 -0.000007 0.000012 0.000084 0.000013 0.000019 -0.000003 0.000013 -0.000000 0.000069 -0.056643 -0.033326 -0.047694 -0.000006 -0.000040 0.000027 -0.000012 0.000048 -0.000035 -0.000017 -0.000137 0.000132 -0.315846 0.084111 0.112437 -58.823864 -4.862389 -14.308299 33.473818 -3.690667 4.291972 5.149362 0.381012 -1.945757 0.000018 0.000122 -0.000008 0.240196 -0.129582 0.334393 -31.266796 15.095866 13.793970 35.140982 -3.802315 4.553999 -4.141072 0.657097 -0.442196 -16.107082 2.520129 -1.149610 
0.907405 -0.646233 2.249977 20.146601 8.408385 -336.235104 -0.002356 0.151130 0.261950 -0.000013 -0.000035 -0.000015 -3.010377 0.233685 -1.809837 -10.532659 0.574025 -7.191008 -0.060043 0.007248 0.658624 -11.129687 -2.091346 -2.332703 -1.592883 -0.221802 -0.172547 -0.028321 -0.208168 0.636753 -1.988973 3.517968 -0.305013 29.901783 -8.173716 -32.775937 0.227631 0.012513 -2.325921 -0.001020 -0.000466 -0.001153 0.251240 -0.112137 0.046263 0.000932 -0.000543 0.000949 0.000015 -0.000001 0.000028 -0.000008 0.000002 -0.000021 0.264471 -0.045515 0.051653 -0.000004 -0.000000 0.000001 -0.000001 -0.000004 -0.000011 0.000005 -0.000005 -0.000026 0.260862 0.023325 0.042798 -0.000002 -0.000004 -0.000008 -0.000007 -0.000002 0.000005 -0.000001 -0.000001 -0.000013 0.252237 0.070110 0.005960 0.000002 0.000001 -0.000008 0.000000 -0.000008 -0.000001 0.000006 -0.000002 -0.000000 0.052571 -0.049186 -0.037565 0.000005 -0.000003 -0.000012 0.000009 -0.000005 0.000009 -0.000003 0.000013 -0.000002 -0.146746 -0.190974 0.625767 -4.072625 -1.766970 -12.786640 4.041327 -38.730195 -14.416105 -0.329363 -0.041860 3.665116 -58.411675 -9.550595 -1.885442 -0.276717 -0.035480 -0.002710 1.025316 7.187559 0.087108 -0.000005 0.000019 -0.000103 -0.000011 0.000001 -0.000218 -0.271366 0.032283 0.001947 -0.000004 -0.000006 0.000014 -0.000001 0.000010 -0.000057 -0.000000 -0.000016 0.000006 -0.246957 0.097057 -0.004306 0.000004 -0.000001 0.000050 0.000012 -0.000014 0.000091 -0.000019 -0.000016 -0.000080 -0.218997 0.138530 -0.037754 -0.000003 0.000014 0.000090 0.000020 0.000018 -0.000005 0.000016 -0.000005 0.000070 -0.056643 -0.033326 -0.047694 0.000004 -0.000033 0.000029 -0.000015 0.000049 -0.000034 -0.000013 -0.000145 0.000137 -0.315846 0.084111 0.112437 -57.876352 -5.669107 -14.064645 33.754744 -3.710009 4.335901 4.952662 0.388749 -1.910744 0.000016 0.000126 -0.000010 0.240358 -0.130062 0.332866 -30.897464 15.566826 14.712381 35.080080 -3.798370 4.544372 -3.335571 0.960076 -1.160376 -16.999067 2.668163 -1.192157 
0.945422 -0.659302 2.258768 20.968995 6.594925 -340.452173 -0.002356 0.151130 0.261950 -0.000011 -0.000037 -0.000016 -2.911862 0.134111 -1.904708 -10.242387 0.361127 -7.375920 -0.060043 0.007248 0.658624 -10.796754 -2.104066 -2.283243 -1.571858 -0.170547 -0.167953 -0.028321 -0.208168 0.636752 -2.021755 3.715852 -0.307564 32.974938 -6.346729 -31.421616 0.364949 0.015937 -3.740739 -0.001067 -0.000487 -0.001211 0.251240 -0.112136 0.046262 0.000970 -0.000569 0.000986 0.000005 -0.000001 0.000028 -0.000012 0.000005 -0.000016 0.264472 -0.045515 0.051653 -0.000002 0.000003 -0.000000 0.000001 -0.000004 -0.000010 0.000004 -0.000006 -0.000029 0.260862 0.023325 0.042797 -0.000003 -0.000003 -0.000011 0.000000 0.000004 0.000007 0.000000 -0.000001 -0.000008 0.252238 0.070110 0.005960 0.000004 0.000002 -0.000008 0.000001 -0.000010 -0.000002 -0.000000 -0.000007 -0.000001 0.052571 -0.049186 -0.037566 0.000003 -0.000003 -0.000018 0.000010 -0.000005 0.000009 0.000003 0.000016 -0.000003 -0.146746 -0.190974 0.625767 -4.268452 -1.860817 -13.349794 4.079311 -40.351163 -15.269281 -0.601196 -0.091896 6.691474 -58.411757 -9.550626 -1.885445 -0.276717 -0.035480 -0.002710 1.025312 7.187562 0.087111 -0.000008 0.000019 -0.000105 -0.000007 0.000006 -0.000215 -0.271365 0.032283 0.001947 -0.000002 -0.000004 0.000019 -0.000004 0.000007 -0.000059 0.000003 -0.000016 0.000006 -0.246956 0.097056 -0.004306 0.000002 0.000001 0.000049 0.000013 -0.000017 0.000092 -0.000016 -0.000014 -0.000083 -0.218997 0.138530 -0.037754 -0.000003 0.000015 0.000092 0.000015 0.000017 -0.000006 0.000011 -0.000006 0.000067 -0.056643 -0.033326 -0.047694 0.000003 -0.000036 0.000032 -0.000018 0.000053 -0.000034 -0.000015 -0.000144 0.000149 -0.315846 0.084111 0.112437 -56.820084 -6.286334 -13.701612 33.971626 -3.724792 4.369874 4.540466 0.013768 -0.982938 0.000014 0.000130 -0.000008 0.240532 -0.130574 0.331237 -30.621832 16.167218 15.657753 35.056311 -3.796828 4.540616 -2.414797 0.529105 -0.528161 -18.479432 2.915246 -1.257664 
0.982881 -0.673735 2.270724 21.765137 5.061357 -344.459991 -0.002356 0.151130 0.261950 -0.000008 -0.000036 -0.000016 -2.803911 0.038651 -1.987190 -9.978162 0.152003 -7.564853 -0.060043 0.007247 0.658624 -10.458414 -2.124152 -2.235713 -1.548105 -0.117592 -0.163018 -0.028321 -0.208168 0.636752 -2.058632 3.932333 -0.310319 35.997064 -4.634163 -29.934745 0.542883 0.015350 -5.573398 -0.001116 -0.000510 -0.001259 0.251240 -0.112136 0.046262 0.001015 -0.000593 0.001034 0.000012 -0.000002 0.000023 -0.000002 0.000003 -0.000017 0.264472 -0.045515 0.051653 0.000001 0.000004 -0.000004 -0.000000 -0.000004 -0.000005 0.000003 -0.000002 -0.000029 0.260862 0.023325 0.042798 0.000001 -0.000001 -0.000010 0.000000 0.000000 0.000012 -0.000003 -0.000003 -0.000005 0.252238 0.070110 0.005960 0.000004 -0.000002 -0.000007 0.000001 -0.000010 -0.000000 0.000004 -0.000007 -0.000001 0.052571 -0.049186 -0.037566 0.000006 -0.000007 -0.000011 0.000015 0.000005 0.000010 -0.000003 0.000011 0.000010 -0.146746 -0.190974 0.625767 -4.575750 -2.038904 -14.199399 4.180489 -41.486829 -15.896823 -0.883754 -0.159676 9.873571 -58.411819 -9.550647 -1.885467 -0.276717 -0.035480 -0.002711 1.025313 7.187563 0.087111 -0.000003 0.000016 -0.000107 -0.000012 0.000001 -0.000216 -0.271365 0.032283 0.001947 -0.000003 -0.000004 0.000013 -0.000001 0.000007 -0.000060 0.000002 -0.000017 0.000009 -0.246956 0.097057 -0.004306 0.000003 0.000002 0.000046 0.000014 -0.000017 0.000092 -0.000018 -0.000017 -0.000081 -0.218997 0.138531 -0.037754 -0.000000 0.000017 0.000090 0.000016 0.000015 -0.000010 0.000010 -0.000010 0.000068 -0.056643 -0.033326 -0.047694 0.000004 -0.000031 0.000025 -0.000015 0.000049 -0.000036 -0.000012 -0.000150 0.000139 -0.315846 0.084111 0.112437 -55.860999 -6.856983 -13.350862 33.996208 -3.726459 4.373729 4.557368 -0.576980 0.312829 -0.246361 0.035949 -0.022799 0.240717 -0.131117 0.329511 -30.841139 16.509066 16.526792 35.603389 -3.831911 4.627226 -1.563213 -0.483919 1.214069 -20.493815 3.253990 -1.336517 
1.015300 -0.691855 2.283678 22.594676 3.800339 -348.909504 -0.002356 0.151130 0.261950 -0.000010 -0.000038 -0.000019 -2.686785 -0.052818 -2.057246 -9.718035 -0.061074 -7.754473 -0.060043 0.007247 0.658624 -10.192710 -2.188761 -2.216625 -1.521592 -0.061768 -0.157691 -0.028321 -0.208168 0.636752 -2.104786 4.191806 -0.313665 38.758212 -2.689762 -27.245232 0.847032 0.001083 -8.709543 -0.001161 -0.000530 -0.001316 0.251240 -0.112136 0.046262 0.001066 -0.000624 0.001088 0.000013 -0.000000 0.000028 -0.000007 0.000005 -0.000019 0.264471 -0.045514 0.051652 -0.000001 0.000002 -0.000003 0.000002 -0.000001 -0.000009 0.000005 -0.000004 -0.000024 0.260861 0.023325 0.042798 -0.000000 -0.000006 -0.000015 -0.000002 0.000001 0.000008 -0.000002 0.000003 -0.000006 0.252238 0.070111 0.005960 0.000006 -0.000003 -0.000011 -0.000001 -0.000010 0.000001 0.000003 -0.000005 -0.000004 0.052571 -0.049186 -0.037566 0.000006 -0.000006 -0.000015 0.000009 0.000000 0.000012 -0.000002 0.000013 0.000009 -0.146746 -0.190974 0.625767 -4.593689 -2.038912 -14.255699 4.556068 -43.060432 -16.043558 -1.139029 -0.235527 12.789557 -58.411880 -9.550674 -1.885478 -0.276717 -0.035480 -0.002711 1.025318 7.187560 0.087110 -0.000007 0.000016 -0.000107 -0.000011 0.000004 -0.000211 -0.271365 0.032283 0.001947 -0.000002 -0.000004 0.000009 -0.000003 0.000007 -0.000063 -0.000002 -0.000015 0.000007 -0.246957 0.097057 -0.004306 0.000005 0.000001 0.000043 0.000016 -0.000018 0.000097 -0.000016 -0.000020 -0.000089 -0.218997 0.138530 -0.037754 -0.000003 0.000017 0.000084 0.000018 0.000015 -0.000006 0.000013 -0.000005 0.000074 -0.056643 -0.033326 -0.047694 -0.000000 -0.000033 0.000024 -0.000019 0.000048 -0.000032 -0.000017 -0.000147 0.000148 -0.315846 0.084111 0.112437 -54.892799 -7.847493 -13.241212 33.761407 -3.710460 4.336939 5.346737 -1.361639 1.913027 -1.133128 0.165710 -0.103556 0.240912 -0.131689 0.327693 -31.662018 16.287305 17.240441 36.771993 -3.904064 4.813299 -0.680077 -1.304599 2.663295 -22.543692 3.601289 -1.404483 
